<?xml version="1.0" encoding="utf-8"?>
<svg width="24px" height="24px" viewBox="0 0 24 24" version="1.1" xmlns:xlink="http://www.w3.org/1999/xlink" xmlns="http://www.w3.org/2000/svg">
  <defs>
    <filter id="filter_1">
      <feColorMatrix in="SourceGraphic" type="matrix" values="0 0 0 0 0.050980393 0 0 0 0 0.1882353 0 0 0 0 0.12941177 0 0 0 1 0" />
    </filter>
  </defs>
  <g id="radio_button_unchecked_black_24dp" filter="url(#filter_1)">
    <path d="M0 0L24 0L24 24L0 24L0 0Z" id="Shape" fill="none" fill-rule="evenodd" stroke="none" />
    <path d="M10 0C4.48 0 0 4.48 0 10C0 15.52 4.48 20 10 20C15.52 20 20 15.52 20 10C20 4.48 15.52 0 10 0L10 0ZM10 18C5.58 18 2 14.42 2 10C2 5.58 5.58 2 10 2C14.42 2 18 5.58 18 10C18 14.42 14.42 18 10 18L10 18Z" transform="translate(2 2)" id="Shape" fill="#000000" fill-rule="evenodd" stroke="none" />
  </g>
</svg>