<?xml version="1.0" encoding="utf-8"?>
<svg width="24px" height="24px" viewBox="0 0 24 24" version="1.1" xmlns:xlink="http://www.w3.org/1999/xlink" xmlns="http://www.w3.org/2000/svg">
  <defs>
    <filter id="filter_1">
      <feColorMatrix in="SourceGraphic" type="matrix" values="0 0 0 0 0.12156863 0 0 0 0 0.47843137 0 0 0 0 0.32941177 0 0 0 1 0" />
    </filter>
    <path d="M0 0L24 0L24 24L0 24L0 0Z" id="path_1" />
    <clipPath id="mask_1">
      <use xlink:href="#path_1" />
    </clipPath>
  </defs>
  <g id="Ok-icon" filter="url(#filter_1)">
    <path d="M0 0L24 0L24 24L0 24L0 0Z" id="Background" fill="none" fill-rule="evenodd" stroke="none" />
    <g clip-path="url(#mask_1)">
      <path d="M10 0C4.477 0 0 4.477 0 10C0 15.523 4.477 20 10 20C15.523 20 20 15.523 20 10C20 4.477 15.523 0 10 0L10 0ZM15.707 7.707L8.707 14.707C8.512 14.902 8.256 15 8 15C7.744 15 7.488 14.902 7.293 14.707L4.293 11.707C3.902 11.316 3.902 10.684 4.293 10.293C4.684 9.902 5.316 9.902 5.707 10.293L8 12.586L14.293 6.293C14.684 5.902 15.316 5.902 15.707 6.293C16.098 6.684 16.098 7.316 15.707 7.707L15.707 7.707Z" transform="translate(2 2)" id="Shape" fill="#FFFFFF" fill-rule="evenodd" stroke="none" />
    </g>
  </g>
</svg>